<svg xmlns="http://www.w3.org/2000/svg" width="1352.000000" height="1352.000000" preserveAspectRatio="xMidYMid meet" style=""><rect id="backgroundrect" width="100%" height="100%" x="0" y="0" fill="none" stroke="none"/><metadata>
Created by potrace 1.16, written by Peter Selinger 2001-2019
</metadata><g class="currentLayer" style=""><title>Layer 1</title><g transform="translate(0,1352) scale(0.10000000149011612,-0.10000000149011612) " fill="#ffffff" stroke="none" id="svg_1" class="selected" fill-opacity="1"><path d="M6265 12869 c-88 -4 -182 -12 -210 -18 -90 -20 -169 -32 -265 -41 -52 -5 -124 -18 -160 -28 -36 -11 -99 -23 -140 -27 -41 -4 -101 -18 -135 -30 -33 -12 -86 -26 -119 -30 -32 -4 -86 -17 -120 -30 -33 -12 -85 -25 -114 -29 -28 -4 -67 -16 -86 -27 -18 -11 -62 -25 -97 -31 -35 -6 -82 -21 -105 -34 -22 -13 -51 -24 -63 -24 -13 0 -53 -13 -89 -29 -37 -16 -83 -32 -102 -36 -19 -4 -47 -16 -62 -26 -14 -11 -41 -22 -60 -26 -18 -3 -58 -19 -89 -35 -31 -15 -63 -28 -70 -28 -8 0 -30 -10 -49 -21 -19 -12 -52 -28 -73 -35 -21 -7 -50 -22 -65 -33 -15 -10 -46 -24 -69 -30 -23 -6 -45 -16 -48 -22 -4 -5 -30 -21 -58 -35 -29 -13 -63 -30 -77 -38 -31 -16 -89 -47 -155 -81 -27 -14 -75 -41 -105 -60 -30 -18 -70 -41 -88 -49 -19 -9 -46 -26 -62 -38 -15 -13 -51 -36 -80 -53 -28 -16 -66 -40 -83 -52 -18 -13 -43 -28 -57 -35 -14 -7 -39 -24 -57 -38 -17 -14 -46 -35 -65 -48 -18 -12 -49 -34 -68 -47 -19 -14 -50 -34 -67 -46 -18 -11 -33 -25 -33 -30 0 -5 -12 -15 -27 -23 -60 -30 -314 -242 -528 -439 -162 -150 -361 -357 -497 -517 -40 -47 -81 -95 -91 -105 -27 -30 -120 -147 -140 -175 -9 -14 -33 -45 -52 -70 -52 -67 -180 -253 -223 -324 -9 -16 -27 -40 -38 -55 -12 -14 -31 -44 -43 -66 -12 -22 -35 -60 -51 -85 -16 -25 -41 -67 -56 -95 -14 -27 -32 -57 -39 -65 -7 -8 -18 -31 -24 -51 -7 -20 -20 -44 -31 -54 -11 -10 -24 -34 -31 -54 -6 -20 -20 -45 -29 -56 -10 -11 -23 -38 -29 -61 -6 -22 -20 -49 -31 -59 -11 -10 -22 -34 -26 -54 -3 -20 -17 -52 -29 -71 -13 -19 -26 -51 -30 -70 -4 -19 -15 -44 -25 -55 -10 -11 -24 -42 -31 -70 -6 -27 -22 -68 -34 -90 -13 -22 -26 -56 -30 -75 -4 -19 -16 -49 -26 -66 -11 -18 -24 -57 -30 -89 -6 -31 -21 -77 -35 -102 -13 -25 -24 -60 -24 -77 0 -17 -11 -55 -25 -84 -14 -30 -30 -83 -35 -118 -6 -35 -19 -87 -30 -114 -10 -27 -24 -84 -29 -128 -6 -43 -17 -100 -26 -127 -9 -26 -25 -109 -35 -184 -10 -75 -25 -170 -34 -211 -22 -111 -36 -392 -36 -739 0 -448 16 -700 51 -815 5 -16 13 -77 19 -137 6 -59 19 -137 31 -174 11 -36 24 -100 29 -143 5 -43 18 -102 30 -132 12 -30 26 -81 31 -114 6 -32 17 -72 25 -88 9 -17 22 -61 30 -98 8 -38 23 -84 33 -102 11 -18 24 -58 30 -89 5 -31 18 -71 29 -90 11 -19 25 -56 31 -83 7 -27 20 -61 30 -75 10 -14 22 -42 26 -61 4 -19 21 -59 36 -89 16 -30 29 -62 29 -71 0 -10 9 -29 20 -43 12 -14 27 -46 34 -71 8 -25 23 -57 34 -71 11 -14 24 -40 28 -58 3 -18 17 -45 30 -60 13 -16 24 -36 24 -46 0 -9 16 -41 35 -71 19 -30 35 -60 35 -66 0 -6 6 -17 14 -23 8 -7 26 -35 41 -64 34 -66 53 -101 90 -157 15 -25 38 -61 50 -80 85 -135 113 -177 165 -243 14 -18 47 -63 73 -102 26 -38 72 -101 103 -140 30 -38 65 -83 77 -98 12 -16 34 -43 49 -60 15 -18 44 -52 65 -77 21 -25 68 -77 105 -116 37 -39 81 -88 97 -110 30 -40 299 -305 412 -405 87 -77 339 -287 389 -324 72 -53 124 -93 156 -119 18 -15 36 -26 41 -26 6 0 21 -10 35 -23 13 -12 53 -41 88 -64 36 -23 79 -52 95 -63 43 -30 162 -104 239 -148 22 -12 47 -29 56 -37 9 -8 21 -15 27 -15 6 0 27 -13 48 -30 21 -16 46 -30 56 -30 9 0 31 -12 48 -26 33 -27 84 -46 105 -38 15 6 67 83 87 129 7 17 24 43 36 58 13 16 23 34 23 41 0 8 10 26 22 41 22 28 51 79 88 152 11 23 25 45 31 49 5 3 21 29 35 57 13 29 40 77 59 107 19 30 43 74 54 96 11 23 25 45 31 49 6 4 20 26 31 49 11 22 37 70 59 106 22 36 48 84 59 106 11 23 24 45 30 48 6 4 20 26 31 49 37 73 66 124 88 152 12 15 22 33 22 39 0 6 10 27 23 45 36 57 74 123 96 167 10 23 25 45 31 49 6 4 20 26 31 49 11 22 37 70 59 106 22 36 48 84 59 106 11 23 24 45 30 48 6 4 20 26 31 49 36 72 69 129 84 146 8 9 21 32 30 51 8 19 34 64 56 100 22 36 48 84 59 106 11 23 25 45 31 49 6 4 21 26 31 49 22 44 60 110 96 167 13 18 23 37 23 40 0 4 -51 43 -114 88 -299 211 -565 475 -777 771 -258 361 -450 801 -539 1235 -39 187 -50 278 -62 480 -12 219 -12 265 0 410 23 267 34 353 56 439 14 50 27 114 31 141 4 28 16 69 26 93 11 23 24 65 29 94 6 28 15 57 20 63 6 7 21 44 34 81 29 84 63 170 82 204 7 14 21 41 29 60 20 46 29 63 70 135 18 33 43 79 53 101 11 23 26 45 32 49 7 4 19 22 27 39 8 17 32 56 54 86 22 30 55 78 75 107 47 70 267 324 340 394 469 449 1025 743 1644 869 239 48 368 59 512 43 703 -79 1377 -400 1912 -912 73 -70 293 -324 340 -394 20 -29 53 -77 75 -107 22 -30 46 -69 54 -86 8 -17 20 -35 27 -39 6 -4 21 -26 32 -49 10 -22 35 -68 53 -101 19 -33 41 -76 50 -95 8 -19 22 -46 30 -60 26 -44 66 -142 101 -244 13 -37 28 -74 34 -81 5 -6 14 -35 20 -63 5 -29 18 -71 29 -94 10 -24 22 -65 26 -93 4 -27 17 -91 31 -141 22 -86 33 -172 56 -439 12 -145 12 -191 0 -410 -16 -271 -56 -504 -127 -740 -219 -722 -648 -1320 -1251 -1746 -63 -45 -114 -84 -114 -88 0 -3 10 -22 23 -40 36 -57 74 -123 96 -167 10 -23 25 -45 31 -49 6 -4 20 -26 31 -49 11 -22 37 -70 59 -106 22 -36 49 -84 59 -106 11 -23 24 -45 30 -48 6 -4 20 -26 31 -49 36 -72 69 -129 84 -146 8 -9 21 -32 30 -51 9 -19 34 -64 56 -100 22 -36 48 -84 59 -106 11 -23 25 -45 31 -49 6 -4 21 -26 31 -49 22 -44 60 -110 96 -167 13 -18 23 -39 23 -45 0 -6 10 -24 22 -39 22 -28 51 -79 88 -152 11 -23 25 -45 31 -49 6 -3 19 -25 30 -48 11 -22 37 -70 59 -106 22 -36 48 -84 59 -106 11 -23 25 -45 31 -49 6 -4 20 -26 31 -49 11 -22 35 -66 54 -96 19 -30 46 -78 59 -107 14 -28 30 -54 35 -57 6 -4 20 -26 31 -49 37 -73 66 -124 88 -152 12 -15 22 -33 22 -41 0 -7 10 -25 23 -41 12 -15 29 -41 36 -58 20 -46 72 -123 87 -129 21 -8 72 11 105 38 17 14 39 26 48 26 10 0 35 14 56 30 21 17 42 30 48 30 6 0 18 7 27 15 9 8 34 25 56 37 77 44 196 118 239 148 17 11 59 40 95 63 35 23 75 52 88 65 14 12 29 22 35 22 5 0 23 11 41 26 32 26 84 66 156 119 50 37 302 247 389 324 113 100 382 365 412 405 16 22 60 71 97 110 37 39 84 91 105 116 21 25 50 59 65 77 15 17 37 44 49 60 12 15 47 60 77 98 31 39 77 102 103 140 26 39 59 84 73 102 52 66 80 108 165 243 12 19 35 55 50 80 37 56 56 91 90 157 15 29 33 57 41 64 8 6 14 17 14 23 0 6 16 36 35 66 19 30 35 62 35 71 0 10 11 30 24 46 13 15 27 42 30 60 4 18 17 44 28 58 11 14 26 46 34 71 7 25 22 57 34 71 11 14 20 33 20 43 0 9 13 41 29 71 15 30 32 70 36 89 4 19 16 47 26 61 10 14 23 48 30 75 6 27 20 64 31 83 11 19 24 59 29 90 6 31 19 71 30 89 10 18 25 64 33 102 8 37 21 81 30 98 8 16 19 56 25 88 5 33 19 84 31 114 12 30 25 89 30 132 5 43 18 107 29 143 12 37 25 115 31 174 6 60 14 121 19 137 35 115 51 367 51 815 0 347 -14 628 -36 739 -9 41 -24 136 -34 211 -10 75 -26 158 -35 184 -9 27 -20 84 -26 127 -5 44 -19 101 -29 128 -11 27 -24 79 -30 114 -5 35 -21 88 -35 118 -14 29 -25 67 -25 84 0 17 -11 52 -24 77 -14 25 -29 71 -35 102 -6 32 -19 71 -30 89 -10 17 -22 47 -26 66 -4 19 -17 53 -30 75 -12 22 -28 63 -34 90 -7 28 -21 59 -31 70 -10 11 -21 36 -25 55 -4 19 -17 51 -30 70 -12 19 -26 51 -29 71 -4 20 -15 44 -26 54 -11 10 -25 37 -31 59 -6 23 -19 50 -29 61 -9 11 -23 36 -29 56 -7 20 -20 44 -31 54 -11 10 -24 34 -31 54 -6 20 -17 43 -24 51 -7 8 -25 38 -39 65 -15 28 -40 70 -56 95 -16 25 -39 63 -51 85 -12 22 -31 52 -43 66 -11 15 -29 39 -38 55 -43 71 -171 257 -223 324 -19 25 -43 56 -52 70 -20 28 -113 145 -140 175 -10 10 -51 58 -91 105 -136 160 -335 367 -497 517 -214 197 -468 409 -527 439 -16 8 -28 18 -28 23 0 5 -15 19 -32 30 -18 12 -49 32 -68 46 -19 13 -50 35 -68 47 -19 13 -48 34 -65 48 -18 14 -43 31 -57 38 -14 7 -39 22 -57 35 -17 12 -55 36 -83 52 -29 17 -65 40 -80 53 -16 12 -43 29 -62 38 -18 8 -58 31 -88 49 -30 19 -77 46 -105 60 -66 34 -124 65 -155 81 -14 8 -48 25 -77 38 -28 14 -54 30 -58 35 -3 6 -25 16 -48 22 -23 6 -54 20 -69 30 -15 11 -44 26 -65 33 -21 7 -54 23 -73 35 -19 11 -41 21 -49 21 -7 0 -39 13 -70 28 -31 16 -71 32 -89 35 -19 4 -46 15 -60 26 -15 10 -43 22 -62 26 -19 4 -65 20 -102 36 -36 16 -76 29 -89 29 -12 0 -41 11 -63 24 -23 13 -70 28 -105 34 -35 6 -79 20 -97 31 -19 11 -58 23 -86 27 -29 4 -81 17 -114 29 -34 13 -88 26 -120 30 -33 4 -86 18 -119 30 -34 12 -94 26 -135 30 -41 4 -104 16 -140 27 -36 10 -108 23 -160 28 -95 9 -171 21 -265 41 -120 25 -888 36 -1280 18z" id="svg_2" fill="#ffffff" fill-opacity="1"/></g></g></svg>